<?xml version="1.0" encoding="utf-8"?>
<!-- Generator: Adobe Illustrator 26.0.3, SVG Export Plug-In . SVG Version: 6.00 Build 0)  -->
<svg version="1.1" id="レイヤー_2" xmlns="http://www.w3.org/2000/svg" xmlns:xlink="http://www.w3.org/1999/xlink" x="0px"
	 y="0px" viewBox="0 0 105.3 46" style="enable-background:new 0 0 105.3 46;" xml:space="preserve">
<style type="text/css">
	.st0{fill:none;}
	.st1{fill:#006255;}
	.st2{fill:#231815;}
</style>
<g>
	<g>
		<line class="st0" x1="-10.5" y1="7.2" x2="115.8" y2="7.2"/>
		<line class="st0" x1="-10.5" y1="39.5" x2="115.8" y2="39.5"/>
		<line class="st0" x1="0" y1="47" x2="0" y2="-0.3"/>
		<line class="st0" x1="105.3" y1="47" x2="105.3" y2="-0.3"/>
		<g>
			<g>
				<g>
					<path class="st1" d="M24.2,31.1v1.6h4.5v2.6h-4.5v1.7h5.5v2.6h-9.1v-11h9.1v2.6H24.2z"/>
					<path class="st1" d="M45.8,31.1v1.6h4.5v2.6h-4.5v1.7h5.5v2.6h-9.1v-11h9.1v2.6H45.8z"/>
					<path class="st1" d="M37.8,28.5h3.4v11h-3.4l-3.8-5.9l0,5.9h-3.4v-11h3.4l3.8,5.9L37.8,28.5z"/>
					<path class="st1" d="M62.3,37c0,0.5,0,1.1,0.1,1.6c0,0.3,0.1,0.6,0.3,0.9l-3.6,0c-0.1-0.1-0.1-0.4-0.1-0.8
						c0-0.4-0.1-0.8-0.1-1.2c0-0.5-0.1-0.9-0.2-1.2c-0.1-0.3-0.3-0.4-0.6-0.5c-0.3-0.1-0.7-0.1-1.2-0.1h-1.1v3.8h-3.6v-11h5.3
						c1.6,0,2.8,0.2,3.6,0.7c0.8,0.5,1.1,1.3,1.1,2.4c0,0.7-0.2,1.3-0.5,1.7c-0.3,0.5-0.8,0.8-1.4,0.9c0.5,0.2,0.9,0.4,1.2,0.6
						c0.3,0.2,0.4,0.6,0.5,0.9C62.2,36.2,62.2,36.5,62.3,37 M58.9,32.2c0-0.4-0.1-0.6-0.4-0.8c-0.3-0.2-0.6-0.3-1.1-0.3h-1.6v2.2
						h1.5c0.5,0,0.9-0.1,1.2-0.2C58.8,32.9,58.9,32.6,58.9,32.2z"/>
					<path class="st1" d="M80.8,28.5h4l-4.1,6.9v4.1h-3.6v-4l-4.1-7h4l1.9,3.7L80.8,28.5z"/>
					<path class="st1" d="M71.5,39.5h2.4v-6H69v2.4h1.6c-0.1,0.3-0.3,0.6-0.7,0.9c-0.4,0.3-0.8,0.4-1.2,0.4c-0.7,0-1.3-0.2-1.7-0.7
						c-0.4-0.5-0.6-1.2-0.6-2.2c0-1,0.2-1.8,0.5-2.4c0.4-0.6,0.9-0.8,1.5-0.8c0.5,0,0.9,0.1,1.2,0.4c0.3,0.2,0.5,0.6,0.7,1h3.4
						C73.5,31,73,30,72,29.3c-0.9-0.7-2.1-1.1-3.5-1.1c-1.1,0-2.2,0.2-3,0.7c-0.9,0.5-1.5,1.2-2,2.1c-0.5,0.9-0.7,1.9-0.7,3.1
						c0,1.1,0.2,2.1,0.7,3c0.5,0.9,1.1,1.5,1.9,2c0.8,0.5,1.7,0.7,2.8,0.7c1.4,0,2.5-0.4,3.3-1.3l0,0c0,0,0-0.1,0.1-0.1V39.5z"/>
				</g>
			</g>
			<g>
				<path class="st2" d="M104.2,20.8c-0.8,0.9-1.7,1.4-2.9,1.6c-0.8,0.2-1.5,0.2-2.3,0.1c-1-0.1-1.9-0.4-2.8-1.1
					c-0.7-0.5-1.2-1.1-1.6-1.8c-0.3-0.6-0.5-1.1-0.6-1.8c-0.2-0.9-0.1-1.7,0.1-2.6c0.5-2,2.1-3.5,4.1-3.9c1.2-0.2,2.2-0.2,3.4,0.1
					c0.8,0.2,1.5,0.6,2.1,1.2c0.4,0.4,0.7,0.7,0.9,1.2c0.3,0.6,0.4,1.1,0.4,1.7h-3.7c-0.1-0.5-0.3-0.9-0.7-1.2
					c-0.5-0.4-1.2-0.4-1.7-0.1c-0.4,0.2-0.6,0.6-0.8,1c-0.3,1-0.3,1.9,0,2.9c0.1,0.4,0.3,0.8,0.6,1.1c0.4,0.3,0.8,0.5,1.3,0.4
					c0.3,0,0.6-0.2,0.8-0.4c0.2-0.2,0.3-0.5,0.4-0.8c0-0.2,0.1-0.4,0.1-0.6h3.9C105.3,19,105,20,104.2,20.8"/>
				<rect x="88.8" y="7.2" class="st2" width="4" height="2.8"/>
				<rect x="88.8" y="11.5" class="st2" width="4" height="10.7"/>
				<path class="st2" d="M79.9,12.6c0.5-0.5,1-0.8,1.7-1.1c1-0.5,2.1-0.6,3.2-0.2c1.2,0.3,2,1.2,2.4,2.3c0.2,0.6,0.3,1.1,0.3,1.7
					v6.9h-4.3V16c0-0.2,0-0.4-0.1-0.6c-0.1-0.4-0.3-0.6-0.7-0.8c-0.8-0.3-1.6,0-2,0.7c-0.2,0.3-0.3,0.6-0.3,0.9v6H76V11.5h3.9
					L79.9,12.6"/>
				<path class="st2" d="M30.1,12.6c0.5-0.5,1-0.8,1.7-1.1c1-0.5,2.1-0.6,3.2-0.2c1.2,0.3,2,1.2,2.4,2.3c0.2,0.6,0.3,1.1,0.3,1.7
					v6.9h-4.3V16c0-0.2,0-0.4-0.1-0.6c-0.1-0.4-0.3-0.6-0.7-0.8c-0.8-0.3-1.6,0-2,0.7c-0.2,0.3-0.3,0.6-0.3,0.9v6h-4.1V11.5H30
					L30.1,12.6"/>
				<path class="st2" d="M56.6,18.3c0.3,0.1,0.6,0.1,0.9,0.2c0.2,0.1,0.4,0.3,0.5,0.5c0.1,0.3,0,0.5-0.2,0.7
					c-0.2,0.2-0.4,0.3-0.7,0.4c-0.4,0.1-0.7,0-1.1-0.1c-0.2-0.1-0.3-0.1-0.5-0.3c-0.2-0.2-0.3-0.3-0.4-0.6C55,19,55,18.8,55,18.6
					h-3.9v0.2c0,0.4,0.1,0.7,0.2,1c0.2,0.5,0.5,0.9,0.9,1.3c0.5,0.5,1.1,0.8,1.8,1c1.5,0.4,2.8,0.5,4.3,0.3c0.7-0.1,1.3-0.3,1.9-0.6
					c0.3-0.1,0.5-0.3,0.7-0.5c1.1-0.9,1.5-2.3,1-3.6c-0.2-0.5-0.4-0.9-0.8-1.2c-0.5-0.5-1.1-0.8-1.8-1c-0.2,0-0.3-0.1-0.4-0.1
					c-0.8-0.2-1.6-0.4-2.4-0.5c-0.2,0-0.4-0.1-0.7-0.1c-0.1,0-0.2-0.1-0.3-0.1c-0.2-0.1-0.3-0.4-0.2-0.6c0,0,0,0,0,0
					c0.1-0.2,0.3-0.4,0.6-0.5c0.4-0.1,0.9-0.1,1.3,0c0.4,0.1,0.7,0.5,0.7,1h3.8c0-0.5-0.1-0.9-0.2-1.3c-0.2-0.4-0.4-0.8-0.8-1.1
					c-0.3-0.3-0.6-0.4-1-0.6c-0.4-0.1-0.7-0.2-1.1-0.3c-0.9-0.2-1.7-0.2-2.7-0.2c-0.5,0-1,0.1-1.5,0.2c-0.7,0.2-1.3,0.4-1.9,0.9
					c-0.5,0.4-0.8,0.8-1,1.4c-0.1,0.3-0.1,0.5-0.1,0.8c0,0.5,0,0.9,0.2,1.3c0.3,0.8,0.9,1.3,1.7,1.7c0.4,0.2,0.7,0.3,1.2,0.4
					C55,18,55.7,18.1,56.6,18.3"/>
				<path class="st2" d="M4.6,17.6v-3.5h1.8c0.3,0,0.6,0,1,0c0.5,0,0.9-0.2,1.1-0.6c0.1-0.2,0.2-0.4,0.3-0.7c0-0.2,0-0.4,0-0.6
					c-0.1-0.8-0.7-1.4-1.5-1.4H4.6v11.4H0v-15h7.5c0.3,0,0.5,0,0.8,0c2,0.1,3.6,1.2,4.4,3c0.4,0.9,0.6,1.8,0.5,2.9
					c-0.2,2.2-1.7,3.8-3.9,4.3c-0.7,0.2-1.3,0.2-2,0.2H4.6"/>
				<path class="st2" d="M63.1,18.5c0.3,1.2,1,2.1,2,2.9c0.7,0.5,1.3,0.8,2.1,1c0.6,0.1,1.1,0.2,1.7,0.2c0.6,0,1.1-0.1,1.7-0.2
					c0.8-0.2,1.5-0.5,2.1-1l-2.3-2.5c-0.4,0.8-1.3,1.2-2.1,0.8c-0.4-0.2-0.6-0.4-0.8-0.8c-0.2-0.3-0.2-0.7-0.3-1
					c-0.1-0.8-0.1-1.4,0-2.2c0.1-0.4,0.2-0.7,0.4-1c0.5-0.7,1.4-0.9,2.2-0.5c0.2,0.1,0.3,0.3,0.5,0.5c0.2,0.3,0.3,0.6,0.4,1
					c0.1,0.7,0.2,1.4,0,2.2c-0.1,0.4-0.1,0.7-0.3,1l2.3,2.5c1-0.8,1.6-1.7,2-2.9c0.2-0.8,0.3-1.5,0.2-2.3c-0.1-1.3-0.6-2.4-1.6-3.4
					c-0.9-0.9-1.9-1.4-3.1-1.6c-0.4-0.1-0.8-0.1-1.2-0.1s-0.8,0-1.2,0.1c-1.2,0.2-2.2,0.7-3.1,1.6c-1,0.9-1.5,2-1.6,3.4
					C62.8,17,62.9,17.7,63.1,18.5"/>
				<path class="st2" d="M50,21.4c-0.1-0.9-0.1-1.6-0.1-2.5c0-1.2,0-2.1,0-3.3c0-0.6-0.1-1.2-0.2-1.8C49.4,13,49,12.4,48.3,12
					c-0.4-0.2-0.8-0.4-1.3-0.5c-1.6-0.3-2.9-0.4-4.5-0.1c-0.4,0.1-0.8,0.2-1.2,0.4c-1,0.4-1.6,1.1-1.9,2.1c-0.1,0.4-0.1,0.7-0.1,1.1
					c0,0.1,0,0.1,0.1,0.2l3.6,0.1c0-0.2,0-0.4,0.1-0.6c0.1-0.3,0.4-0.6,0.7-0.7c0.5-0.2,1-0.2,1.4,0c0.3,0.1,0.6,0.3,0.7,0.7
					c0.1,0.2,0,0.4-0.1,0.6c-0.1,0.2-0.2,0.3-0.4,0.3c-0.1,0-0.2,0.1-0.3,0.1c-0.5,0.1-0.9,0.2-1.4,0.3c-0.4,0.1-0.7,0.1-1.2,0.2
					c-0.5,0.1-1,0.2-1.5,0.4c-0.5,0.2-0.9,0.4-1.2,0.7c-0.5,0.4-0.8,1-0.9,1.6c-0.1,0.4,0,0.8,0.1,1.2c0.3,1.1,1,1.9,2.1,2.3
					c1.2,0.4,2.4,0.3,3.6-0.2c0.6-0.2,1-0.6,1.4-1l-0.3-1.8c-0.2,0.3-0.4,0.5-0.7,0.6c-0.3,0.1-0.5,0.2-0.9,0.2
					c-0.3,0-0.5,0-0.7-0.1c-0.2-0.1-0.4-0.2-0.5-0.3c-0.1-0.1-0.2-0.3-0.2-0.5c-0.1-0.3,0-0.5,0.2-0.7c0.1-0.1,0.3-0.2,0.5-0.3
					c0.4-0.2,0.8-0.3,1.2-0.4c0.5-0.1,0.9-0.3,1.4-0.5c0,0.4,0,0.7,0,1.1c0,0.3-0.1,0.5-0.3,0.8l0.3,1.8c0.1,0.3,0.1,0.5,0.2,0.7
					c0,0.1,0.1,0.3,0.2,0.4h4C50.1,22,50.1,21.7,50,21.4"/>
				<path class="st2" d="M24.8,21.4c-0.1-0.9-0.1-1.6-0.1-2.5c0-1.2,0-2.1,0-3.3c0-0.6-0.1-1.2-0.2-1.8C24.2,13,23.7,12.4,23,12
					c-0.4-0.2-0.8-0.4-1.3-0.5c-1.5-0.3-2.9-0.4-4.5-0.1c-0.4,0.1-0.8,0.2-1.2,0.4c-1,0.4-1.6,1.1-1.9,2.1c-0.1,0.4-0.1,0.7-0.1,1.1
					c0,0.1,0,0.1,0.1,0.2l3.6,0.1c0-0.2,0-0.4,0.1-0.6c0.1-0.3,0.4-0.6,0.7-0.7c0.5-0.2,1-0.2,1.4,0c0.3,0.1,0.6,0.3,0.7,0.7
					c0.1,0.2,0,0.4-0.1,0.6c-0.1,0.2-0.2,0.3-0.4,0.3c-0.1,0-0.2,0.1-0.3,0.1c-0.5,0.1-0.9,0.2-1.4,0.3c-0.4,0.1-0.7,0.1-1.2,0.2
					c-0.5,0.1-1,0.2-1.5,0.4c-0.5,0.2-0.9,0.4-1.2,0.7c-0.5,0.4-0.8,1-0.9,1.6c-0.1,0.4,0,0.8,0.1,1.2c0.3,1.1,1,1.9,2.1,2.3
					c1.2,0.4,2.4,0.3,3.6-0.2c0.6-0.2,1-0.6,1.4-1l-0.3-1.8c-0.2,0.3-0.4,0.5-0.7,0.6c-0.3,0.1-0.5,0.2-0.9,0.2
					c-0.3,0-0.5,0-0.7-0.1c-0.2-0.1-0.4-0.2-0.5-0.3c-0.1-0.1-0.2-0.3-0.2-0.5c-0.1-0.3,0-0.5,0.2-0.7c0.1-0.1,0.3-0.2,0.5-0.3
					c0.4-0.2,0.8-0.3,1.2-0.4c0.5-0.1,0.9-0.3,1.4-0.5c0,0.4,0,0.7,0,1.1c0,0.3-0.1,0.5-0.3,0.8l0.3,1.8c0.1,0.3,0.2,0.5,0.2,0.7
					c0.1,0.1,0.1,0.3,0.2,0.4h4C24.9,22,24.8,21.7,24.8,21.4"/>
			</g>
		</g>
		<rect x="-10.5" y="-0.3" class="st0" width="126.3" height="47.3"/>
	</g>
</g>
</svg>
